# xmcd
#
# Track frame offsets:
#	150
#	15109
#	31092
#	47462
#	63565
#	79805
#	96050
#	113652
#
# Disc length: 1725 seconds
#
# Revision: 0
# Processed by: cddbd v1.5.1PL2 Copyright (c) Steve Scherf et al.
# Submitted via: dBpowerAMP V4.0
#
DISCID=4e06bb08
DTITLE=Various Artist - Play A Hit 2000 Country Vol. 4
DYEAR=1900
DGENRE=
TTITLE0=Eric Heatherly - Flowers On The Wall
TTITLE1=Lonestar - What About Now
TTITLE2=Warren Brothers w/ Sara Evans - That's The Beat Of A Heart
TTITLE3=Kinleys - She Ain't The Girl For You
TTITLE4=Montgomery Gentry - Self Made Man
TTITLE5=Tammy Cochran - If You Can
TTITLE6=Steve Wariner  - Faith In You
TTITLE7=Tracy Bird - Love, You Ain't Seen The Last Of Me
EXTD=
EXTT0=
EXTT1=
EXTT2=
EXTT3=
EXTT4=
EXTT5=
EXTT6=
EXTT7=
PLAYORDER=
